<mxfile host="Electron" modified="2023-11-07T12:00:47.069Z" agent="Mozilla/5.0 (Macintosh; Intel Mac OS X 10_15_7) AppleWebKit/537.36 (KHTML, like Gecko) draw.io/22.0.3 Chrome/114.0.5735.289 Electron/25.8.4 Safari/537.36" etag="61V_ZeFH7NT_1fz6H_ai" version="22.0.3" type="device">
  <diagram name="Page-1" id="96XL_Q2btU2n1N77e-mK">
    <mxGraphModel dx="954" dy="596" grid="1" gridSize="10" guides="1" tooltips="1" connect="1" arrows="1" fold="1" page="1" pageScale="1" pageWidth="827" pageHeight="1169" math="0" shadow="0">
      <root>
        <mxCell id="0" />
        <mxCell id="1" parent="0" />
        <mxCell id="9OPKm3AVCAScBKNYxBnj-9" value="" style="rounded=0;whiteSpace=wrap;html=1;" vertex="1" parent="1">
          <mxGeometry x="80" y="80" width="680" height="430" as="geometry" />
        </mxCell>
        <mxCell id="9OPKm3AVCAScBKNYxBnj-10" value="" style="ellipse;whiteSpace=wrap;html=1;aspect=fixed;strokeColor=#82b366;fillColor=#d5e8d4;" vertex="1" parent="1">
          <mxGeometry x="374" y="390" width="80" height="80" as="geometry" />
        </mxCell>
        <mxCell id="9OPKm3AVCAScBKNYxBnj-11" value="" style="ellipse;whiteSpace=wrap;html=1;aspect=fixed;strokeColor=#ff0000;fillColor=#ff0000;" vertex="1" parent="1">
          <mxGeometry x="200" y="110" width="80" height="80" as="geometry" />
        </mxCell>
        <mxCell id="9OPKm3AVCAScBKNYxBnj-12" value="" style="ellipse;whiteSpace=wrap;html=1;aspect=fixed;fillColor=#e40000;strokeColor=#ff0000;" vertex="1" parent="1">
          <mxGeometry x="530" y="110" width="80" height="80" as="geometry" />
        </mxCell>
        <mxCell id="9OPKm3AVCAScBKNYxBnj-13" value="Fiedne" style="text;html=1;strokeColor=none;fillColor=none;align=center;verticalAlign=middle;whiteSpace=wrap;rounded=0;" vertex="1" parent="1">
          <mxGeometry x="210" y="135" width="60" height="30" as="geometry" />
        </mxCell>
        <mxCell id="9OPKm3AVCAScBKNYxBnj-14" value="Fiedne" style="text;html=1;strokeColor=none;fillColor=none;align=center;verticalAlign=middle;whiteSpace=wrap;rounded=0;" vertex="1" parent="1">
          <mxGeometry x="540" y="135" width="60" height="30" as="geometry" />
        </mxCell>
        <mxCell id="9OPKm3AVCAScBKNYxBnj-15" value="Spiller" style="text;html=1;strokeColor=none;fillColor=none;align=center;verticalAlign=middle;whiteSpace=wrap;rounded=0;" vertex="1" parent="1">
          <mxGeometry x="384" y="415" width="60" height="30" as="geometry" />
        </mxCell>
        <mxCell id="9OPKm3AVCAScBKNYxBnj-16" value="Spiller" style="swimlane;fontStyle=1;align=center;verticalAlign=top;childLayout=stackLayout;horizontal=1;startSize=26;horizontalStack=0;resizeParent=1;resizeParentMax=0;resizeLast=0;collapsible=1;marginBottom=0;whiteSpace=wrap;html=1;" vertex="1" parent="1">
          <mxGeometry x="200" y="760" width="160" height="154" as="geometry" />
        </mxCell>
        <mxCell id="9OPKm3AVCAScBKNYxBnj-17" value="bilde: Surface" style="text;strokeColor=none;fillColor=none;align=left;verticalAlign=top;spacingLeft=4;spacingRight=4;overflow=hidden;rotatable=0;points=[[0,0.5],[1,0.5]];portConstraint=eastwest;whiteSpace=wrap;html=1;" vertex="1" parent="9OPKm3AVCAScBKNYxBnj-16">
          <mxGeometry y="26" width="160" height="26" as="geometry" />
        </mxCell>
        <mxCell id="9OPKm3AVCAScBKNYxBnj-24" value="ramme: Rect" style="text;strokeColor=none;fillColor=none;align=left;verticalAlign=top;spacingLeft=4;spacingRight=4;overflow=hidden;rotatable=0;points=[[0,0.5],[1,0.5]];portConstraint=eastwest;whiteSpace=wrap;html=1;" vertex="1" parent="9OPKm3AVCAScBKNYxBnj-16">
          <mxGeometry y="52" width="160" height="26" as="geometry" />
        </mxCell>
        <mxCell id="9OPKm3AVCAScBKNYxBnj-19" value="liv: int" style="text;strokeColor=none;fillColor=none;align=left;verticalAlign=top;spacingLeft=4;spacingRight=4;overflow=hidden;rotatable=0;points=[[0,0.5],[1,0.5]];portConstraint=eastwest;whiteSpace=wrap;html=1;" vertex="1" parent="9OPKm3AVCAScBKNYxBnj-16">
          <mxGeometry y="78" width="160" height="24" as="geometry" />
        </mxCell>
        <mxCell id="9OPKm3AVCAScBKNYxBnj-26" value="poeng: int" style="text;strokeColor=none;fillColor=none;align=left;verticalAlign=top;spacingLeft=4;spacingRight=4;overflow=hidden;rotatable=0;points=[[0,0.5],[1,0.5]];portConstraint=eastwest;whiteSpace=wrap;html=1;" vertex="1" parent="9OPKm3AVCAScBKNYxBnj-16">
          <mxGeometry y="102" width="160" height="26" as="geometry" />
        </mxCell>
        <mxCell id="9OPKm3AVCAScBKNYxBnj-27" value="navn: str" style="text;strokeColor=none;fillColor=none;align=left;verticalAlign=top;spacingLeft=4;spacingRight=4;overflow=hidden;rotatable=0;points=[[0,0.5],[1,0.5]];portConstraint=eastwest;whiteSpace=wrap;html=1;" vertex="1" parent="9OPKm3AVCAScBKNYxBnj-16">
          <mxGeometry y="128" width="160" height="26" as="geometry" />
        </mxCell>
        <mxCell id="9OPKm3AVCAScBKNYxBnj-20" value="Fiedne" style="swimlane;fontStyle=1;align=center;verticalAlign=top;childLayout=stackLayout;horizontal=1;startSize=26;horizontalStack=0;resizeParent=1;resizeParentMax=0;resizeLast=0;collapsible=1;marginBottom=0;whiteSpace=wrap;html=1;" vertex="1" parent="1">
          <mxGeometry x="440" y="760" width="160" height="130" as="geometry" />
        </mxCell>
        <mxCell id="9OPKm3AVCAScBKNYxBnj-21" value="bilde: Surface&lt;br&gt;&lt;br&gt;ramme: Rect&lt;br&gt;&lt;br&gt;liv: int" style="text;strokeColor=none;fillColor=none;align=left;verticalAlign=top;spacingLeft=4;spacingRight=4;overflow=hidden;rotatable=0;points=[[0,0.5],[1,0.5]];portConstraint=eastwest;whiteSpace=wrap;html=1;" vertex="1" parent="9OPKm3AVCAScBKNYxBnj-20">
          <mxGeometry y="26" width="160" height="104" as="geometry" />
        </mxCell>
        <mxCell id="9OPKm3AVCAScBKNYxBnj-28" value="flytt()&lt;br&gt;&lt;br&gt;mist_liv()&lt;br&gt;&lt;br&gt;skyt()" style="text;strokeColor=default;fillColor=none;align=left;verticalAlign=top;spacingLeft=4;spacingRight=4;overflow=hidden;rotatable=0;points=[[0,0.5],[1,0.5]];portConstraint=eastwest;whiteSpace=wrap;html=1;strokeWidth=1;rounded=0;" vertex="1" parent="1">
          <mxGeometry x="200" y="914" width="160" height="86" as="geometry" />
        </mxCell>
        <mxCell id="9OPKm3AVCAScBKNYxBnj-31" value="Figur" style="swimlane;fontStyle=1;align=center;verticalAlign=top;childLayout=stackLayout;horizontal=1;startSize=26;horizontalStack=0;resizeParent=1;resizeParentMax=0;resizeLast=0;collapsible=1;marginBottom=0;whiteSpace=wrap;html=1;" vertex="1" parent="1">
          <mxGeometry x="320" y="530" width="160" height="154" as="geometry" />
        </mxCell>
        <mxCell id="9OPKm3AVCAScBKNYxBnj-32" value="bilde: Surface&lt;br&gt;&lt;br&gt;ramme: Rect&lt;br&gt;&lt;br&gt;liv: int" style="text;strokeColor=none;fillColor=none;align=left;verticalAlign=top;spacingLeft=4;spacingRight=4;overflow=hidden;rotatable=0;points=[[0,0.5],[1,0.5]];portConstraint=eastwest;whiteSpace=wrap;html=1;" vertex="1" parent="9OPKm3AVCAScBKNYxBnj-31">
          <mxGeometry y="26" width="160" height="94" as="geometry" />
        </mxCell>
        <mxCell id="9OPKm3AVCAScBKNYxBnj-33" value="" style="line;strokeWidth=1;fillColor=none;align=left;verticalAlign=middle;spacingTop=-1;spacingLeft=3;spacingRight=3;rotatable=0;labelPosition=right;points=[];portConstraint=eastwest;strokeColor=inherit;" vertex="1" parent="9OPKm3AVCAScBKNYxBnj-31">
          <mxGeometry y="120" width="160" height="8" as="geometry" />
        </mxCell>
        <mxCell id="9OPKm3AVCAScBKNYxBnj-34" value="tegn()" style="text;strokeColor=none;fillColor=none;align=left;verticalAlign=top;spacingLeft=4;spacingRight=4;overflow=hidden;rotatable=0;points=[[0,0.5],[1,0.5]];portConstraint=eastwest;whiteSpace=wrap;html=1;" vertex="1" parent="9OPKm3AVCAScBKNYxBnj-31">
          <mxGeometry y="128" width="160" height="26" as="geometry" />
        </mxCell>
        <mxCell id="9OPKm3AVCAScBKNYxBnj-35" value="dÃ¸()" style="text;strokeColor=default;fillColor=none;align=left;verticalAlign=top;spacingLeft=4;spacingRight=4;overflow=hidden;rotatable=0;points=[[0,0.5],[1,0.5]];portConstraint=eastwest;whiteSpace=wrap;html=1;strokeWidth=1;rounded=0;" vertex="1" parent="1">
          <mxGeometry x="440" y="890" width="160" height="24" as="geometry" />
        </mxCell>
        <mxCell id="9OPKm3AVCAScBKNYxBnj-37" value="" style="endArrow=none;html=1;rounded=0;exitX=0.5;exitY=0;exitDx=0;exitDy=0;" edge="1" parent="1" source="9OPKm3AVCAScBKNYxBnj-16">
          <mxGeometry width="50" height="50" relative="1" as="geometry">
            <mxPoint x="390" y="780" as="sourcePoint" />
            <mxPoint x="400" y="720" as="targetPoint" />
            <Array as="points">
              <mxPoint x="280" y="720" />
            </Array>
          </mxGeometry>
        </mxCell>
        <mxCell id="9OPKm3AVCAScBKNYxBnj-38" value="" style="endArrow=none;html=1;rounded=0;entryX=0.5;entryY=0;entryDx=0;entryDy=0;" edge="1" parent="1" target="9OPKm3AVCAScBKNYxBnj-20">
          <mxGeometry width="50" height="50" relative="1" as="geometry">
            <mxPoint x="400" y="720" as="sourcePoint" />
            <mxPoint x="440" y="730" as="targetPoint" />
            <Array as="points">
              <mxPoint x="520" y="720" />
            </Array>
          </mxGeometry>
        </mxCell>
        <mxCell id="9OPKm3AVCAScBKNYxBnj-39" value="" style="endArrow=classic;html=1;rounded=0;entryX=0.5;entryY=1.058;entryDx=0;entryDy=0;entryPerimeter=0;" edge="1" parent="1" target="9OPKm3AVCAScBKNYxBnj-34">
          <mxGeometry width="50" height="50" relative="1" as="geometry">
            <mxPoint x="400" y="720" as="sourcePoint" />
            <mxPoint x="390" y="690" as="targetPoint" />
            <Array as="points" />
          </mxGeometry>
        </mxCell>
      </root>
    </mxGraphModel>
  </diagram>
</mxfile>
